<?xml version="1.0" encoding="iso-8859-1"?>
<!-- Generator: Adobe Illustrator 18.1.1, SVG Export Plug-In . SVG Version: 6.00 Build 0)  -->
<svg version="1.1" id="Capa_1" xmlns="http://www.w3.org/2000/svg" xmlns:xlink="http://www.w3.org/1999/xlink" x="0px" y="0px"
	 viewBox="0 0 32.36 32.36" style="enable-background:new 0 0 32.36 32.36;" xml:space="preserve">
<g>
	<path style="fill:#010002;" d="M13.593,14.206c-0.031-0.113-0.062-0.227-0.086-0.34c-0.016-0.069-0.028-0.14-0.041-0.209
		c-0.021-0.105-0.043-0.21-0.059-0.316c-0.055-0.356-0.082-0.711-0.082-1.064c0-3.382,1.544-6.502,3.936-7.947l0.207-0.125
		l-0.116-0.211C15.975,1.493,13.716,0,11.305,0c-0.751,0-1.476,0.145-2.158,0.409c-0.175,0.067-0.344,0.15-0.512,0.233
		c-1.328,0.657-2.466,1.782-3.29,3.221C5.249,4.03,5.157,4.204,5.07,4.38C4.365,5.804,3.95,7.482,3.95,9.283
		c0,0.507,0.055,1.009,0.153,1.503c0.022,0.117,0.046,0.231,0.075,0.346c0.08,0.332,0.181,0.658,0.297,0.979
		c0.096,0.263,0.204,0.523,0.32,0.779c0.157,0.34,0.332,0.671,0.519,0.994c0.059,0.101,0.119,0.203,0.181,0.303
		c1.553,2.493,3.917,4.331,5.359,4.678c-0.092,0.201-0.214,0.394-0.375,0.496c-0.243,0.157,0.188-0.072,0.725-0.186
		c0.886,3.348,1.105,6.852,0.951,10.302c-0.021,0.455,0.6,0.167,0.615-0.165c0.154-3.404-0.045-6.868-0.883-10.181
		c0.182,0.023,0.349,0.084,0.479,0.205c-0.074-0.065-0.267-0.258-0.349-0.551c0.751-0.26,1.698-0.866,2.644-1.709l0.154-0.139
		l-0.107-0.178C14.188,15.904,13.819,15.052,13.593,14.206z M5.858,4.364L5.713,4.22C6.49,2.815,7.581,1.717,8.856,1.089
		l0.398,0.808c0.042,0.083,0.12,0.141,0.212,0.154l2.718,0.395l-1.966,1.918c-0.067,0.064-0.097,0.158-0.082,0.249l0.465,2.707
		L8.169,6.042C8.128,6.02,8.083,6.009,8.038,6.009s-0.09,0.01-0.131,0.033L5.476,7.32L5.94,4.613
		C5.956,4.523,5.925,4.428,5.858,4.364z M6.081,13.98l-0.096,0.05c-0.016-0.025-0.033-0.051-0.05-0.075
		c-0.063-0.1-0.124-0.201-0.184-0.303c-0.39-0.661-0.712-1.371-0.941-2.112l0.458-0.066c0.058-0.009,0.108-0.043,0.133-0.096
		l0.763-1.547l0.764,1.547c0.025,0.052,0.075,0.087,0.133,0.096l1.707,0.249l-1.235,1.203c-0.042,0.041-0.061,0.1-0.051,0.156
		l0.292,1.7L6.247,13.98c-0.026-0.015-0.055-0.021-0.083-0.021C6.137,13.959,6.108,13.965,6.081,13.98z M12.014,18.249
		c0.006-0.023,0.006-0.043,0.014-0.068H11.63c-0.016-0.054-0.027-0.108-0.044-0.16c-0.119-0.4-0.702,0.01-0.608,0.319
		c0.004,0.015,0.007,0.028,0.012,0.043c-1.141-0.269-3.271-1.824-4.79-4.032l1.727,0.908c0.025,0.012,0.054,0.02,0.083,0.02
		c0.036,0,0.073-0.011,0.103-0.034c0.055-0.039,0.081-0.105,0.07-0.172l-0.336-1.96l1.425-1.39c0.048-0.046,0.065-0.117,0.044-0.181
		c-0.02-0.064-0.076-0.11-0.143-0.119l-1.968-0.287L6.323,9.354c-0.03-0.061-0.091-0.099-0.158-0.099
		c-0.066,0-0.128,0.038-0.158,0.099l-0.88,1.784l-0.415,0.06c-0.013-0.046-0.029-0.09-0.04-0.138
		c-0.028-0.114-0.052-0.23-0.076-0.345C4.501,10.246,4.45,9.768,4.45,9.283c0-1.524,0.305-2.958,0.841-4.208L4.825,7.786
		C4.807,7.892,4.851,7.999,4.937,8.062c0.086,0.064,0.202,0.072,0.296,0.022l2.805-1.476l2.806,1.476
		c0.04,0.021,0.086,0.033,0.131,0.033c0.057,0,0.115-0.018,0.164-0.055c0.087-0.063,0.129-0.17,0.111-0.275l-0.534-3.124l2.27-2.211
		c0.075-0.076,0.104-0.188,0.07-0.289c-0.032-0.102-0.121-0.177-0.227-0.192L9.693,1.515L9.371,0.862
		C9.985,0.629,10.633,0.5,11.305,0.5c2.16,0,4.197,1.315,5.492,3.53c-2.422,1.585-3.973,4.79-3.973,8.247
		c0,0.327,0.025,0.658,0.068,0.99c0.014,0.105,0.031,0.209,0.048,0.315c0.01,0.054,0.027,0.111,0.038,0.166l-0.425-0.061
		l-0.756-1.534c-0.027-0.052-0.08-0.085-0.137-0.085c-0.058,0-0.11,0.033-0.135,0.085l-0.758,1.534l-1.693,0.245
		c-0.057,0.009-0.104,0.05-0.122,0.104c-0.017,0.055-0.002,0.115,0.039,0.155l1.226,1.194l-0.289,1.687
		c-0.009,0.055,0.014,0.113,0.06,0.147c0.047,0.034,0.109,0.039,0.161,0.012l1.513-0.797l1.516,0.797
		c0.021,0.01,0.045,0.017,0.07,0.017c0.031,0,0.062-0.009,0.088-0.029c0.047-0.035,0.07-0.092,0.061-0.147l-0.289-1.687l0.256-0.249
		c0.209,0.567,0.479,1.135,0.811,1.704C13.335,17.565,12.583,18.021,12.014,18.249z M13.044,16.819l-1.312-0.69
		c-0.021-0.011-0.047-0.018-0.07-0.018c-0.023,0-0.049,0.006-0.07,0.018l-1.312,0.69l0.251-1.461
		c0.008-0.05-0.009-0.101-0.043-0.134l-1.062-1.036l1.466-0.211c0.051-0.008,0.094-0.039,0.115-0.083l0.656-1.33l0.656,1.33
		c0.023,0.045,0.064,0.075,0.115,0.083l0.615,0.088c0.016,0.068,0.025,0.136,0.043,0.206c0.031,0.11,0.059,0.223,0.092,0.334
		c0.021,0.07,0.049,0.142,0.072,0.211l-0.416,0.407c-0.037,0.034-0.053,0.084-0.045,0.134L13.044,16.819z M27.857,9.081
		c-0.328-1.009-0.797-1.923-1.37-2.717c-0.74-1.029-1.659-1.847-2.697-2.374c-0.098-0.05-0.197-0.093-0.295-0.137l0.041-0.04
		l-0.184-0.027c-0.471-0.195-0.961-0.334-1.467-0.407c-0.272-0.039-0.551-0.063-0.831-0.063c-0.11,0-0.217,0.015-0.325,0.021
		c-0.726,0.041-1.424,0.211-2.081,0.499c-2.877,1.262-4.95,4.709-4.95,8.764c0,0.266,0.017,0.529,0.045,0.79
		c0.021,0.198,0.047,0.394,0.083,0.589c0.771,4.215,4.827,7.809,6.864,8.222c-0.082,0.146-0.18,0.277-0.301,0.356
		c-0.22,0.141,0.109-0.032,0.57-0.15c0.047,0.695-0.037,1.398,0.003,2.099c0.066,1.138,0.683,2.045,1.485,2.788
		c-0.828,0.402-1.761,1.006-1.699,1.975c0.066,1.03,0.853,1.768,0.668,2.865c-0.076,0.442,0.56,0.155,0.614-0.166
		c0.14-0.818-0.13-1.521-0.456-2.257c-0.132-0.299-0.275-0.629-0.174-0.956c0.18-0.586,1.214-0.928,1.701-1.139
		c0.174-0.076,0.379-0.413,0.187-0.57c-1.004-0.82-1.688-1.767-1.727-3.093c-0.017-0.553,0.032-1.095,0.019-1.638
		c0.264-0.003,0.515,0.05,0.695,0.217c-0.068-0.062-0.237-0.232-0.328-0.49c2.213-0.866,5.856-4.412,6.395-8.446
		c0.021-0.161,0.037-0.321,0.049-0.484c0.012-0.169,0.019-0.34,0.019-0.512C28.41,11.354,28.212,10.167,27.857,9.081z M21.054,3.816
		c0.717,0,1.409,0.144,2.061,0.407l-0.642,0.625c-0.035,0.034-0.053,0.085-0.045,0.134l0.252,1.461l-1.312-0.689
		c-0.022-0.013-0.046-0.02-0.07-0.02c-0.025,0-0.049,0.006-0.07,0.02l-1.312,0.689l0.25-1.461c0.009-0.049-0.008-0.101-0.043-0.134
		l-0.768-0.747C19.899,3.921,20.468,3.816,21.054,3.816z M20.621,18.009l-1.294-1.263l1.789-0.26
		c0.061-0.008,0.113-0.045,0.14-0.101l0.801-1.622l0.801,1.622c0.026,0.056,0.079,0.092,0.139,0.101l1.792,0.26l-1.295,1.263
		c-0.045,0.042-0.065,0.104-0.055,0.164l0.305,1.784l-1.6-0.841c-0.028-0.015-0.059-0.022-0.087-0.022
		c-0.03,0-0.06,0.007-0.087,0.022l-1.602,0.841l0.307-1.784C20.686,18.114,20.665,18.051,20.621,18.009z M24.124,19.984
		l-0.305-1.777l1.496-1.457c0.05-0.05,0.067-0.123,0.046-0.19c-0.021-0.068-0.079-0.117-0.149-0.126l-2.064-0.301l-0.925-1.871
		c-0.03-0.064-0.095-0.104-0.166-0.104c-0.071,0-0.136,0.04-0.165,0.104l-0.926,1.871l-2.064,0.301
		c-0.07,0.009-0.127,0.058-0.148,0.126c-0.023,0.067-0.004,0.14,0.046,0.19l1.495,1.457l-0.354,2.057
		c-0.012,0.069,0.018,0.14,0.074,0.181c0.057,0.041,0.133,0.046,0.195,0.015l1.847-0.971l1.642,0.863
		c-0.646,0.532-1.27,0.927-1.787,1.159c-0.138,0.061-0.268,0.112-0.389,0.148c-0.016-0.093-0.037-0.187-0.06-0.281
		c-0.009-0.038-0.015-0.074-0.025-0.11c-0.112-0.401-0.696,0.008-0.608,0.32c0.014,0.045,0.021,0.091,0.031,0.136
		c-1.812-0.292-6.662-4.378-6.662-9.125c0-0.812,0.093-1.594,0.254-2.341l1.554,1.513l-0.371,2.16
		c-0.013,0.072,0.017,0.147,0.077,0.19c0.06,0.043,0.141,0.05,0.205,0.015l1.938-1.019l1.94,1.019
		c0.029,0.015,0.061,0.023,0.091,0.023c0.04,0,0.081-0.013,0.114-0.038c0.061-0.042,0.09-0.118,0.076-0.19l-0.369-2.16l1.57-1.53
		c0.053-0.052,0.07-0.129,0.049-0.199c-0.023-0.071-0.084-0.122-0.157-0.133l-2.169-0.316L18.03,7.629
		c-0.033-0.067-0.1-0.109-0.175-0.109c-0.073,0-0.14,0.042-0.172,0.109l-0.972,1.964l-2.168,0.316
		c-0.007,0.001-0.01,0.006-0.017,0.007c0.683-2.718,2.372-4.864,4.502-5.708l0.823,0.801l-0.289,1.687
		c-0.01,0.056,0.014,0.114,0.061,0.147c0.047,0.033,0.109,0.04,0.158,0.013l1.516-0.797l1.514,0.797
		c0.021,0.01,0.047,0.017,0.07,0.017c0.032,0,0.062-0.01,0.09-0.03c0.047-0.034,0.07-0.091,0.06-0.147l-0.288-1.687l0.664-0.647
		c1.104,0.519,2.074,1.386,2.829,2.504l-0.881,1.781l-2.509,0.365c-0.085,0.012-0.154,0.072-0.182,0.153
		c-0.027,0.083-0.004,0.17,0.057,0.231l1.816,1.77l-0.428,2.499c-0.016,0.084,0.02,0.17,0.088,0.22
		c0.069,0.05,0.162,0.057,0.238,0.017l2.243-1.178l1.187,0.624C27.585,16.03,25.839,18.441,24.124,19.984z M19.628,13.608
		l-1.68-0.884c-0.031-0.015-0.061-0.023-0.093-0.023c-0.03,0-0.062,0.008-0.089,0.023l-1.682,0.884l0.322-1.873
		c0.009-0.063-0.012-0.127-0.058-0.172l-1.36-1.326l1.88-0.272c0.063-0.009,0.118-0.049,0.147-0.106l0.839-1.703l0.841,1.703
		c0.029,0.058,0.084,0.097,0.147,0.106l1.88,0.272l-1.359,1.326c-0.047,0.045-0.067,0.109-0.057,0.172L19.628,13.608z
		 M27.901,12.854l-1.116-0.585c-0.034-0.017-0.069-0.026-0.105-0.026s-0.072,0.01-0.104,0.026L24.63,13.29l0.371-2.166
		c0.014-0.072-0.012-0.146-0.064-0.198l-1.574-1.535l2.176-0.316c0.073-0.011,0.137-0.056,0.168-0.122l0.811-1.64
		c0.871,1.473,1.393,3.3,1.393,5.287C27.909,12.685,27.905,12.769,27.901,12.854z"/>
</g>
<g>
</g>
<g>
</g>
<g>
</g>
<g>
</g>
<g>
</g>
<g>
</g>
<g>
</g>
<g>
</g>
<g>
</g>
<g>
</g>
<g>
</g>
<g>
</g>
<g>
</g>
<g>
</g>
<g>
</g>
</svg>
