<svg version="1.0" width="1080" height="1080" xmlns="http://www.w3.org/2000/svg">
<title>Simplified ancient Mesopotamian eight-pointed star symbol of Ishtar</title>
<g style="stroke:#000000;stroke-width:30" transform="translate(540,540)">
<circle style="fill:#ffffff" r="515"/>
<path style="stroke:none" d="M-298.12,298.12L-222.284,115.033L-146.447,146.447L-115.033,222.284Z
M115.033,222.284L146.447,146.447L222.284,115.033L298.12,298.12Z
M115.033,-222.284L298.12,-298.12L222.284,-115.033L146.447,-146.447Z
M-298.12,-298.12L-115.033,-222.284L-146.447,-146.447L-222.284,-115.033Z
M-421.607,0L-123.486,-123.486L0,-421.607L123.486,-123.486L421.606,0L123.486,123.486L0,421.606L-123.486,123.486Z
M-500,0L-250,103.553L-353.553,353.553L-103.553,250L0,500L103.553,250
L353.553,353.553L250,103.553L500,0L250,-103.553L353.553,-353.553L103.553,-250
L0,-500L-103.553,-250L-353.553,-353.553L-250,-103.553Z"/>
<circle style="fill:none" r="180.5"/></g></svg>
